# xmcd
#
# Track frame offsets: 
#        150
#        17378
#        30310
#        51395
#        66109
#        84844
#        101767
#        118057
#        140348
#        155871
#        173806
#
# Disc length: 2456 seconds
#
# Revision: 0
# Processed by: cddbd v1.5.2PL0 Copyright (c) Steve Scherf et al.
# Submitted via: ExactAudioCopyFreeDBPlugin 1.0
#
DISCID=8909960b
DTITLE=Geo - Australie N° 24
DYEAR=2009
DGENRE=Folk
TTITLE0=Telek - Sonny
TTITLE1=Jeff Lang - Here she comes again
TTITLE2=Lucinda Peters - The bird's sweet calling
TTITLE3=Jilaine Jones - It'her wedding day
TTITLE4=Sarah Mc Gregor - Beautiful thing
TTITLE5=Whirimako Black - Pou Hiriri
TTITLE6=King Curly - Serious World
TTITLE7=Ochre - Canoeing on the black wood
TTITLE8=Cashman'diary - Ballad in the catalpa
TTITLE9=Perpetual Ocean - Lament
TTITLE10=Te Runga Rawa - E Te atua
EXTD=
EXTT0=
EXTT1=
EXTT2=
EXTT3=
EXTT4=
EXTT5=
EXTT6=
EXTT7=
EXTT8=
EXTT9=
EXTT10=
PLAYORDER=
